<svg height='300px' width='300px'  fill="#ffffff" xmlns:dc="http://purl.org/dc/elements/1.1/" xmlns:cc="http://creativecommons.org/ns#" xmlns:rdf="http://www.w3.org/1999/02/22-rdf-syntax-ns#" xmlns:svg="http://www.w3.org/2000/svg" xmlns="http://www.w3.org/2000/svg" xmlns:sodipodi="http://sodipodi.sourceforge.net/DTD/sodipodi-0.dtd" xmlns:inkscape="http://www.inkscape.org/namespaces/inkscape" version="1.1" x="0px" y="0px" viewBox="0 0 100 100"><g transform="translate(0,-952.36218)"><path style="opacity:1;color:#ffffff;fill:#ffffff;stroke:none;stroke-width:3.99999976000000010;stroke-linecap:round;stroke-linejoin:round;stroke-miterlimit:4;stroke-opacity:1;stroke-dasharray:none;stroke-dashoffset:0;marker:none;visibility:visible;display:inline;overflow:visible;enable-background:accumulate" d="m 60,976.36217 c -8.23539,0 -15.34017,4.75514 -18.78125,11.65625 -2.55222,-3.4238 -6.62005,-5.65625 -11.21875,-5.65625 -7.73199,0 -14,6.26802 -14,14 0,1.75425 0.31706,3.42132 0.90625,4.96873 C 11.70173,1003.3725 8,1008.4336 8,1014.3622 c 0,7.732 6.26801,14 14,14 2.98047,0 53,0 53,0 9.38884,0 17,-7.6112 17,-17 0,-7.3126 -4.61574,-13.53787 -11.09375,-15.93753 C 79.93212,984.73112 70.94747,976.36217 60,976.36217 z"></path></g></svg>