<svg height='300px' width='300px'  fill="#ED4C5C" xmlns="http://www.w3.org/2000/svg" viewBox="0 0 68 54" x="0px" y="0px"><path fill="#ED4C5C" d="M583,430 C589.160165,430 594.37959,434.30407 595.720405,440.147431 C600.42346,440.962926 604,445.06379 604,450 C604,455.522847 599.522847,460 594,460 L579,460 C577.895431,460 577,459.104569 577,458 C577,456.895431 577.895431,456 579,456 L594,456 C597.313708,456 600,453.313708 600,450 C600,446.686292 597.313708,444 594,444 C592.971058,444 592.110014,443.219293 592.009555,442.195267 C591.55543,437.566155 587.66264,434 583,434 C582.158538,434 581.334423,434.114943 580.54275,434.339013 C579.540167,434.622778 578.487692,434.089252 578.123922,433.112847 C576.099358,427.678668 570.896203,424 565,424 C558.571667,424 553.013985,428.370033 551.43866,434.507405 C551.219194,435.362431 550.465127,435.972456 549.583121,436.0085 C544.239027,436.226893 540,440.632137 540,446 C540,451.522847 544.477153,456 550,456 L561,456 C562.104569,456 563,456.895431 563,458 C563,459.104569 562.104569,460 561,460 L550,460 C542.268014,460 536,453.731986 536,446 C536,438.975454 541.18392,433.129314 547.973622,432.145593 C550.434169,424.976531 557.220233,420 565,420 C571.989447,420 578.221112,424.020738 581.190715,430.125139 C581.786576,430.042052 582.390748,430 583,430 Z M568,467.171573 L568,448 C568,446.895431 568.895431,446 570,446 C571.104569,446 572,446.895431 572,448 L572,467.171573 L574.585786,464.585786 C575.366835,463.804738 576.633165,463.804738 577.414214,464.585786 C578.195262,465.366835 578.195262,466.633165 577.414214,467.414214 L571.414214,473.414214 C570.633165,474.195262 569.366835,474.195262 568.585786,473.414214 L562.585786,467.414214 C561.804738,466.633165 561.804738,465.366835 562.585786,464.585786 C563.366835,463.804738 564.633165,463.804738 565.414214,464.585786 L568,467.171573 Z" transform="translate(-536 -420)"></path></svg>