<svg height='300px' width='300px'  fill="#000000" xmlns="http://www.w3.org/2000/svg" xmlns:xlink="http://www.w3.org/1999/xlink" version="1.1" x="0px" y="0px" viewBox="0 0 100 100" enable-background="new 0 0 100 100" xml:space="preserve"><path fill="#ED4C5C" d="M64.39,7.821C62.209,5.64,60.663,5,57.58,5H18.484C14.188,5,12.5,6.688,12.5,10.984v78.032c0,4.296,1.688,5.984,5.984,5.984  h63.032c4.296,0,5.984-1.688,5.984-5.984V34.919c0-3.084-0.64-4.629-2.821-6.81L64.39,7.821z M82.266,88.171  c0,1.146-0.451,1.595-1.596,1.595H19.33c-1.146,0-1.596-0.45-1.596-1.595V68.813h64.532V88.171z M37.339,60.986  c1.19,0,2.511-0.259,3.289-0.569l0.595,3.082c-0.724,0.362-2.357,0.751-4.48,0.751c-6.033,0-9.143-3.755-9.143-8.729  c0-5.957,4.249-9.271,9.532-9.271c2.046,0,3.6,0.415,4.299,0.777l-0.803,3.134c-0.803-0.336-1.917-0.647-3.315-0.647  c-3.134,0-5.569,1.891-5.569,5.776C31.744,58.785,33.816,60.986,37.339,60.986z M48.161,56.661c-2.9-1.01-4.791-2.616-4.791-5.154  c0-2.978,2.486-5.257,6.604-5.257c1.969,0,3.418,0.415,4.455,0.881l-0.879,3.185c-0.7-0.336-1.943-0.829-3.652-0.829  s-2.538,0.777-2.538,1.684c0,1.113,0.984,1.605,3.237,2.46c3.083,1.139,4.532,2.746,4.532,5.206c0,2.927-2.252,5.413-7.044,5.413  c-1.994,0-3.964-0.518-4.947-1.062l0.803-3.263c1.061,0.544,2.692,1.088,4.376,1.088c1.813,0,2.771-0.751,2.771-1.891  C51.087,58.034,50.259,57.413,48.161,56.661z M56.317,46.535h4.325l2.124,7.381c0.595,2.072,1.14,4.066,1.555,6.242h0.077  c0.44-2.098,0.983-4.17,1.58-6.164l2.227-7.459H72.4l-5.88,17.456h-4.61L56.317,46.535z M82.266,41.687H17.734V11.829  c0-1.146,0.45-1.595,1.596-1.595h39.846c0.572,0,0.798,0.225,0.798,0.797v15.511c0,4.296,1.688,5.984,5.983,5.984h15.511  c0.573,0,0.798,0.226,0.798,0.798V41.687z"></path></svg>