<svg height='300px' width='300px'  fill="#000000" xmlns="http://www.w3.org/2000/svg" xmlns:xlink="http://www.w3.org/1999/xlink" version="1.1" x="0px" y="0px" viewBox="0 0 100 100" enable-background="new 0 0 100 100" xml:space="preserve"><path fill="#ED4C5C" d="M38.544,27.591c-3.972,2.412-6.767,6.229-7.87,10.749c-1.102,4.518-0.378,9.193,2.037,13.164  c3.183,5.243,8.748,8.373,14.886,8.373c2.306,0,4.633-0.479,6.783-1.394l5.97,9.927c0.449,0.748,1.271,1.213,2.144,1.213  c0.453,0,0.898-0.124,1.288-0.358c1.179-0.709,1.562-2.248,0.853-3.432l-5.98-9.942c6.571-5.424,8.271-15.108,3.805-22.463  c-3.185-5.24-8.751-8.368-14.89-8.368C44.392,25.059,41.271,25.935,38.544,27.591z M58.186,36.023  c3.552,5.847,1.687,13.493-4.158,17.044c-1.945,1.183-4.169,1.808-6.43,1.808c-4.377,0-8.345-2.231-10.613-5.969  c-1.722-2.83-2.238-6.163-1.453-9.383c0.786-3.221,2.777-5.941,5.607-7.66c1.946-1.181,4.169-1.806,6.43-1.806  C51.947,30.059,55.916,32.289,58.186,36.023z M79.789,20.226L50.879,9.385c-0.564-0.212-1.195-0.211-1.757,0L20.213,20.226  c-0.971,0.363-1.623,1.303-1.623,2.34v35.293c0,6.258,3.241,12.074,10.199,18.305c4.806,4.304,10.963,8.355,16.952,12.297  l2.874,1.894c0.41,0.274,0.889,0.419,1.385,0.419s0.976-0.145,1.382-0.416l2.869-1.894c5.97-3.927,12.143-7.987,16.961-12.301  c6.958-6.231,10.199-12.048,10.199-18.306V22.564C81.409,21.528,80.758,20.589,79.789,20.226z M76.41,57.859  c0,4.734-2.712,9.367-8.534,14.579c-4.559,4.079-10.568,8.032-16.379,11.854c-0.501,0.328-1,0.656-1.498,0.985l-1.545-1.018  c-5.801-3.817-11.8-7.766-16.33-11.82c-5.822-5.215-8.534-9.849-8.534-14.581V24.299L50,14.396l26.41,9.903V57.859z"></path></svg>